<svg width="389" height="389" viewBox="0 0 389 389" fill="none" xmlns="http://www.w3.org/2000/svg">
<rect width="389" height="389" rx="194.5" fill="white"/>
<path d="M166.867 263.804H166.367V264.304V342V342.5H166.867H221.461H221.961V342V264.304V263.804H221.461H166.867ZM73.4643 96.3304L73.2574 96.3304L73.111 96.4767L49.6466 119.917L49.2924 120.271L49.6467 120.624L73.1111 144.052L73.2575 144.199H73.4644H221.436H221.936V143.699V96.8181V96.3181L221.436 96.3181L73.4643 96.3304ZM73.4644 211.024H73.2575L73.1111 211.17L49.6467 234.598L49.2918 234.952L49.6473 235.306L73.1117 258.66L73.258 258.806H73.4644H221.436H221.936V258.306V211.524V211.024H221.436H73.4644ZM315.18 153.866L315.033 153.72H314.826H169.807H169.307V154.22V201.101V201.601H169.807H314.826H315.033L315.18 201.454L338.644 178.014L338.998 177.66L338.644 177.307L315.18 153.866ZM194.473 46.6709L194.095 46.2395L193.719 46.6716L166.477 77.9539L166.354 78.0951V78.2823V90.9181V91.4181H166.854H221.449H221.949V90.9181V78.2823V78.0945L221.825 77.9532L194.473 46.6709Z" fill="url(#paint0_linear_217_67)" stroke="white"/>
<defs>
<linearGradient id="paint0_linear_217_67" x1="194.145" y1="47" x2="194.145" y2="342" gradientUnits="userSpaceOnUse">
<stop offset="0.25" stop-color="#334155"/>
<stop offset="0.95" stop-color="#64748B"/>
</linearGradient>
</defs>
</svg>
